<svg width="164" height="68" viewBox="0 0 164 68" fill="none" xmlns="http://www.w3.org/2000/svg">
<path d="M20.24 36.32C18.4693 36.32 16.8267 36.096 15.312 35.648C13.7973 35.1787 12.5173 34.5493 11.472 33.76L12.72 30.528C13.7653 31.2747 14.9067 31.8507 16.144 32.256C17.4027 32.6613 18.768 32.864 20.24 32.864C21.9253 32.864 23.152 32.5867 23.92 32.032C24.688 31.456 25.072 30.72 25.072 29.824C25.072 29.0773 24.7947 28.4907 24.24 28.064C23.7067 27.6373 22.7787 27.2853 21.456 27.008L17.936 26.272C13.9253 25.4187 11.92 23.36 11.92 20.096C11.92 18.688 12.2933 17.4613 13.04 16.416C13.7867 15.3707 14.8213 14.56 16.144 13.984C17.4667 13.408 18.992 13.12 20.72 13.12C22.256 13.12 23.696 13.3547 25.04 13.824C26.384 14.272 27.504 14.912 28.4 15.744L27.152 18.816C25.3813 17.3227 23.2267 16.576 20.688 16.576C19.216 16.576 18.064 16.8853 17.232 17.504C16.4 18.1227 15.984 18.9333 15.984 19.936C15.984 20.704 16.24 21.3227 16.752 21.792C17.264 22.24 18.1387 22.592 19.376 22.848L22.864 23.584C24.976 24.032 26.544 24.736 27.568 25.696C28.6133 26.656 29.136 27.936 29.136 29.536C29.136 30.88 28.7733 32.064 28.048 33.088C27.3227 34.112 26.288 34.912 24.944 35.488C23.6213 36.0427 22.0533 36.32 20.24 36.32ZM32.6515 36V13.44H36.7475V36H32.6515ZM41.7155 36V13.44H45.1395L53.1395 28.192L61.1075 13.44H64.4675V36H60.7555V20.8L54.2915 32.576H51.8915L45.4275 20.864V36H41.7155ZM69.4328 36V13.44H79.2248C81.6994 13.44 83.6088 14.0587 84.9528 15.296C86.2968 16.5333 86.9688 18.2613 86.9688 20.48C86.9688 22.6987 86.2968 24.4373 84.9528 25.696C83.6088 26.9333 81.6994 27.552 79.2248 27.552H73.5288V36H69.4328ZM73.5288 24.32H78.5848C81.5288 24.32 83.0008 23.04 83.0008 20.48C83.0008 17.9413 81.5288 16.672 78.5848 16.672H73.5288V24.32ZM90.3078 36V13.44H94.4038V32.512H105.22V36H90.3078ZM117.17 36.32C114.994 36.32 113.084 35.84 111.442 34.88C109.82 33.92 108.562 32.576 107.666 30.848C106.77 29.0987 106.322 27.0507 106.322 24.704C106.322 22.336 106.77 20.288 107.666 18.56C108.562 16.832 109.82 15.4987 111.442 14.56C113.063 13.6 114.972 13.12 117.17 13.12C119.367 13.12 121.276 13.6 122.898 14.56C124.519 15.4987 125.778 16.832 126.674 18.56C127.57 20.288 128.018 22.3253 128.018 24.672C128.018 27.04 127.57 29.0987 126.674 30.848C125.778 32.576 124.519 33.92 122.898 34.88C121.276 35.84 119.367 36.32 117.17 36.32ZM117.17 32.8C119.239 32.8 120.85 32.0853 122.002 30.656C123.154 29.2267 123.73 27.2427 123.73 24.704C123.73 22.144 123.154 20.16 122.002 18.752C120.871 17.344 119.26 16.64 117.17 16.64C115.1 16.64 113.49 17.344 112.338 18.752C111.186 20.16 110.61 22.144 110.61 24.704C110.61 27.2427 111.186 29.2267 112.338 30.656C113.49 32.0853 115.1 32.8 117.17 32.8ZM132.183 36V13.44H135.255L147.383 29.184V13.44H151.191V36H148.151L135.991 20.192V36H132.183Z" fill="white"/>
<path d="M45.72 56L52 41.9H53.72L60.02 56H57.9L56.42 52.56H49.28L47.82 56H45.72ZM52.84 44.2L50.02 50.88H55.72L52.88 44.2H52.84ZM61.8666 56V41.9H70.8266V43.58H63.9466V48.08H70.4066V49.76H63.9466V56H61.8666ZM72.9408 56V41.9H78.7808C80.3008 41.9 81.4741 42.2667 82.3008 43C83.1274 43.72 83.5408 44.7333 83.5408 46.04C83.5408 47.0933 83.2608 47.96 82.7008 48.64C82.1408 49.3067 81.3474 49.7533 80.3208 49.98C80.9608 50.1933 81.5008 50.7067 81.9408 51.52L84.3808 56H82.1008L79.6608 51.5C79.3808 50.98 79.0541 50.6333 78.6808 50.46C78.3208 50.2733 77.8541 50.18 77.2808 50.18H75.0208V56H72.9408ZM75.0208 48.62H78.4408C80.4941 48.62 81.5208 47.7733 81.5208 46.08C81.5208 44.4 80.4941 43.56 78.4408 43.56H75.0208V48.62ZM86.4759 56V41.9H88.5559V56H86.4759ZM98.128 56.18C96.7013 56.18 95.4813 55.8867 94.468 55.3C93.4546 54.7133 92.6746 53.88 92.128 52.8C91.5946 51.7067 91.328 50.42 91.328 48.94C91.328 47.46 91.5946 46.18 92.128 45.1C92.6746 44.02 93.4546 43.1867 94.468 42.6C95.4813 42.0133 96.7013 41.72 98.128 41.72C99.088 41.72 99.9813 41.8733 100.808 42.18C101.648 42.4733 102.348 42.9 102.908 43.46L102.188 45.12C101.575 44.5733 100.941 44.18 100.288 43.94C99.648 43.6867 98.948 43.56 98.188 43.56C96.668 43.56 95.508 44.0267 94.708 44.96C93.908 45.8933 93.508 47.22 93.508 48.94C93.508 50.66 93.908 51.9933 94.708 52.94C95.508 53.8733 96.668 54.34 98.188 54.34C98.948 54.34 99.648 54.22 100.288 53.98C100.941 53.7267 101.575 53.3267 102.188 52.78L102.908 54.44C102.348 54.9867 101.648 55.4133 100.808 55.72C99.9813 56.0267 99.088 56.18 98.128 56.18ZM103.591 56L109.871 41.9H111.591L117.891 56H115.771L114.291 52.56H107.151L105.691 56H103.591ZM110.711 44.2L107.891 50.88H113.591L110.751 44.2H110.711Z" fill="#CE0033"/>
</svg>
